<svg width="153" height="51" viewBox="0 0 153 51" fill="none" xmlns="http://www.w3.org/2000/svg">
<path d="M148.817 1.28937C148.569 0.498731 147.728 0.058295 146.937 0.305632L134.053 4.33622C133.262 4.58356 132.822 5.42501 133.069 6.21565C133.316 7.00629 134.158 7.44673 134.949 7.19939L146.401 3.61665L149.984 15.0693C150.231 15.86 151.073 16.3004 151.863 16.0531C152.654 15.8057 153.094 14.9643 152.847 14.1736L148.817 1.28937ZM30.9581 16.7895L31.8639 17.9851L30.9581 16.7895ZM58.7849 16.825L59.6938 15.6317L58.7849 16.825ZM129.12 36.632L130.449 37.3276L129.12 36.632ZM94.806 44.2626L93.8971 45.4558L94.806 44.2626ZM-1.11081 42.97L1.63709 40.8879L-0.174667 38.4968L-2.92256 40.5788L-1.11081 42.97ZM7.13288 36.7238L12.6287 32.5596L10.8169 30.1685L5.32112 34.3326L7.13288 36.7238ZM18.1245 28.3955L23.6203 24.2313L21.8085 21.8402L16.3127 26.0043L18.1245 28.3955ZM29.116 20.0672L31.8639 17.9851L30.0522 15.594L27.3043 17.676L29.116 20.0672ZM31.8639 17.9851C32.8047 17.2723 33.789 16.6471 34.806 16.1093L33.4037 13.4573C32.2442 14.0703 31.123 14.7827 30.0522 15.594L31.8639 17.9851ZM41.3978 13.8995C43.7004 13.526 46.051 13.529 48.3526 13.9084L48.8405 10.9483C46.2183 10.5161 43.5407 10.5127 40.9175 10.9382L41.3978 13.8995ZM54.9387 16.135C55.9544 16.6753 56.937 17.303 57.876 18.0182L59.6938 15.6317C58.6251 14.8177 57.5057 14.1025 56.3477 13.4865L54.9387 16.135ZM57.876 18.0182L60.1273 19.7331L61.9452 17.3465L59.6938 15.6317L57.876 18.0182ZM64.63 23.1628L69.1326 26.5925L70.9504 24.2059L66.4478 20.7762L64.63 23.1628ZM73.6352 30.0222L78.1379 33.4519L79.9557 31.0654L75.4531 27.6356L73.6352 30.0222ZM82.6405 36.8816L87.1431 40.3113L88.961 37.9248L84.4583 34.4951L82.6405 36.8816ZM91.6458 43.741L93.8971 45.4558L95.7149 43.0693L93.4636 41.3545L91.6458 43.741ZM93.8971 45.4558C94.8544 46.185 95.8465 46.8325 96.8654 47.3998L98.3247 44.7786C97.4305 44.2808 96.5583 43.7117 95.7149 43.0693L93.8971 45.4558ZM103.489 49.9073C105.827 50.4189 108.207 50.5775 110.552 50.4012L110.327 47.4096C108.267 47.5645 106.179 47.425 104.13 46.9767L103.489 49.9073ZM117.46 48.8651C119.659 48.0309 121.747 46.8785 123.648 45.4245L121.825 43.0418C120.159 44.3161 118.327 45.3274 116.396 46.0601L117.46 48.8651ZM128.584 40.3463C129.267 39.4007 129.891 38.3937 130.449 37.3276L127.791 35.9364C127.3 36.8756 126.751 37.7608 126.152 38.5906L128.584 40.3463ZM130.449 37.3276L131.971 34.4197L129.313 33.0285L127.791 35.9364L130.449 37.3276ZM135.015 28.6039L138.059 22.7881L135.402 21.3969L132.357 27.2127L135.015 28.6039ZM141.104 16.9723L144.148 11.1565L141.49 9.76529L138.446 15.5811L141.104 16.9723ZM147.192 5.34072L148.714 2.43283L146.056 1.04161L144.534 3.9495L147.192 5.34072Z" fill="#8C7D7D"/>
</svg>
