<svg width="78" height="78" viewBox="0 0 78 78" fill="none" xmlns="http://www.w3.org/2000/svg">
<path d="M48.8019 50.5158L52.1982 57.8189C52.1982 57.8189 67.4655 61.0608 67.4655 68.7716C67.4655 74.25 60.673 74.25 60.673 74.25H42.5834L33.6771 69.3021" stroke="#FF5F05" stroke-opacity="0.54" stroke-width="5.9375" stroke-linecap="round" stroke-linejoin="round"/>
<path d="M28.4481 50.5158L25.0558 57.8189C25.0558 57.8189 9.78455 61.0608 9.78455 68.7716C9.78455 74.25 16.577 74.25 16.577 74.25H24.7708L33.677 69.3021L44.5625 62.375" stroke="#FF5F05" stroke-opacity="0.54" stroke-width="5.9375" stroke-linecap="round" stroke-linejoin="round"/>
<path d="M3 54.1654C3 54.1654 11.4827 52.3406 16.5731 50.5158C21.6596 24.9529 36.9229 26.7777 38.625 26.7777C40.3231 26.7777 55.5904 24.9529 60.6769 50.5158C65.7673 52.3367 74.25 54.1654 74.25 54.1654H3ZM38.625 18.8333C40.7246 18.8333 42.7383 17.9993 44.2229 16.5146C45.7076 15.0299 46.5417 13.0163 46.5417 10.9167C46.5417 8.81704 45.7076 6.8034 44.2229 5.31874C42.7383 3.83407 40.7246 3 38.625 3C36.5254 3 34.5117 3.83407 33.0271 5.31874C31.5424 6.8034 30.7083 8.81704 30.7083 10.9167C30.7083 13.0163 31.5424 15.0299 33.0271 16.5146C34.5117 17.9993 36.5254 18.8333 38.625 18.8333Z" stroke="#FF5F05" stroke-opacity="0.54" stroke-width="5.9375" stroke-linecap="round" stroke-linejoin="round"/>
</svg>
