<svg width="80" height="85" viewBox="0 0 80 85" fill="none" xmlns="http://www.w3.org/2000/svg">
<path d="M37.6329 24.6958L40.753 22.4333L42.8747 33.0673L35.2616 34.3117L37.6329 24.6958Z" fill="#D6A57C"/>
<path d="M33.5143 30.4654C36.0104 31.3704 35.2616 34.3117 35.2616 34.3117C38.3817 33.7461 39.3802 27.9766 38.7561 24.5827L33.5143 30.4654Z" fill="#B58360"/>
<path d="M37.1337 10.5548L24.5284 17.0031C23.4052 20.1707 24.9028 21.4151 25.0276 22.6595C25.1524 23.2252 24.154 24.3564 23.53 25.0352C22.2819 26.3927 24.9028 26.9584 25.7765 26.619C26.6501 27.7503 25.0276 28.7684 28.8966 27.4109C28.8966 27.4109 25.1524 29.6735 28.1477 29.8997C28.1477 31.3704 28.3974 34.3117 36.26 30.0129C38.6313 28.7684 38.7561 24.5827 38.7561 24.5827L42.8747 23.2252L37.1337 10.5548Z" fill="#D6A57C"/>
<path d="M27.399 11.0073C35.7609 6.82156 41.3771 10.2154 42.6251 11.9123C45.87 16.4375 44.9964 22.3201 41.7515 27.0715C41.7515 27.0715 39.6298 26.619 38.881 24.4696C38.881 24.4696 41.2523 25.0352 41.3771 20.6232C41.5019 16.89 36.8841 15.7587 35.7609 20.9626L35.1369 21.0757C33.5144 18.8132 35.012 15.4193 31.6423 14.9668C28.7718 14.6274 24.2789 17.5688 24.2789 17.5688C23.1556 16.3243 24.0293 12.7042 27.399 11.0073Z" fill="#594640"/>
<path d="M28.3974 22.0939C28.5222 22.8858 28.1478 23.5646 27.6486 23.6777C27.0246 23.7908 26.775 23.2252 26.6502 22.4333C26.5254 21.6414 26.5254 20.9626 27.1494 20.9626C27.6486 20.8495 28.2726 21.302 28.3974 22.0939Z" fill="#664E27"/>
<path d="M37.1337 21.7545C36.8841 20.2838 38.0074 18.7 39.3802 18.4738C39.3802 18.4738 37.3834 20.6232 38.5066 22.8858C38.3818 22.8858 37.2586 22.7727 37.1337 21.7545Z" fill="#B58360"/>
<path d="M30.2695 26.8453C30.2695 26.8453 28.8966 28.2028 28.2726 28.5422C27.1493 29.3341 26.8997 28.9947 27.5238 28.4291C28.023 27.9766 28.8966 27.4109 28.8966 27.4109L30.2695 26.8453Z" fill="#664E27"/>
<path d="M64.2163 67.3453C63.7171 69.6078 65.3395 71.7573 67.8356 72.2098L69.9573 62.5939C70.2069 61.4626 69.3333 60.4444 68.0852 60.2182L65.8387 59.8788L64.2163 67.3453ZM20.1603 71.8704C17.6642 71.4179 15.2929 72.8885 14.7937 75.1511L25.5269 76.9612C26.7749 77.1874 28.023 76.3955 28.2726 75.3774L28.7718 73.3411L20.1603 71.8704Z" fill="#D3976E"/>
<path d="M61.221 39.4025L57.1025 31.7098C56.6033 30.8048 55.48 30.3523 54.3568 30.4654L44.9964 30.8048C43.6236 30.8048 42.5003 31.8229 42.6252 33.0673C42.6252 34.3118 43.8732 35.2168 45.246 35.2168L53.4831 34.9905L56.9777 41.4388L61.221 39.4025Z" fill="#3B946F"/>
<path d="M58.8497 39.855L56.6033 40.6469C55.8544 40.8732 55.3552 41.6651 55.7296 42.457L56.104 43.4751C56.3536 44.0408 56.8529 44.3802 57.4769 44.3802C58.1009 45.6246 59.349 47.2084 62.0947 46.3033C62.5939 46.1902 65.09 45.3983 63.9667 42.6832C62.2195 38.7237 62.2195 38.7237 58.8497 39.855Z" fill="#D6A57C"/>
<path d="M57.9761 44.267C59.8481 43.5883 58.8497 41.7782 58.3505 40.5338C58.2257 40.3075 57.9761 40.4207 57.9761 40.6469C58.3505 41.6651 59.4737 43.362 57.8513 44.0408C57.7265 44.0408 57.8513 44.267 57.9761 44.267Z" fill="#B58360"/>
<path d="M53.9823 57.7293L49.4893 51.5073H33.764L23.1556 58.0687L20.1603 71.7572L28.647 73.341L31.0183 62.707L41.7515 57.9556L48.7405 64.6301L64.2163 67.3452L65.8387 59.7656L53.9823 57.7293Z" fill="#3E4347"/>
<path d="M49.4893 51.5072L44.6219 30.8047L32.3911 32.8411C31.8919 32.9542 31.3927 33.1804 31.0182 33.5198L25.402 38.8369L17.9138 36.4612L16.2913 40.6469L25.402 43.4751C26.5253 43.8145 27.6485 43.4751 28.2726 42.5701L32.7655 38.2712L33.7639 51.5072H49.4893Z" fill="#47B892"/>
<path d="M17.6642 38.8369L18.6627 36.9137C19.0371 36.235 18.6627 35.3299 17.9138 35.1037L16.7906 34.6512C16.1666 34.4249 15.5426 34.538 15.1681 34.8774C13.6705 34.4249 11.6736 34.0855 10.4256 36.4612C10.176 36.8006 9.05272 38.95 11.9232 40.1944C16.1666 41.7782 16.1666 41.7782 17.6642 38.8369Z" fill="#D6A57C"/>
</svg>
