<svg width="78" height="70" viewBox="0 0 78 70" fill="none" xmlns="http://www.w3.org/2000/svg">
<path d="M59.5617 12.5688H63.0653V15.7088C63.0653 16.5416 63.4345 17.3403 64.0915 17.9292C64.7486 18.5181 65.6397 18.8489 66.569 18.8489C67.4982 18.8489 68.3893 18.5181 69.0464 17.9292C69.7035 17.3403 70.0726 16.5416 70.0726 15.7088V12.5688H73.5762C74.5054 12.5688 75.3966 12.2379 76.0537 11.6491C76.7107 11.0602 77.0798 10.2615 77.0798 9.42871C77.0798 8.59591 76.7107 7.79722 76.0537 7.20834C75.3966 6.61947 74.5054 6.28864 73.5762 6.28864H70.0726V3.14857C70.0726 2.31577 69.7035 1.51708 69.0464 0.928208C68.3893 0.339331 67.4982 0.00850359 66.569 0.00850359C65.6397 0.00850359 64.7486 0.339331 64.0915 0.928208C63.4345 1.51708 63.0653 2.31577 63.0653 3.14857V6.28864H59.5617C58.6325 6.28864 57.7413 6.61947 57.0843 7.20834C56.4272 7.79722 56.0581 8.59591 56.0581 9.42871C56.0581 10.2615 56.4272 11.0602 57.0843 11.6491C57.7413 12.2379 58.6325 12.5688 59.5617 12.5688ZM35.0363 25.129V43.9694C35.0363 46.4678 36.1437 48.8639 38.1149 50.6305C40.086 52.3972 42.7595 53.3896 45.5472 53.3896H49.0508C51.8385 53.3896 54.512 52.3972 56.4831 50.6305C58.4543 48.8639 59.5617 46.4678 59.5617 43.9694V25.129C59.5617 22.6306 58.4543 20.2346 56.4831 18.468C54.512 16.7013 51.8385 15.7088 49.0508 15.7088H45.5472C42.7595 15.7088 40.086 16.7013 38.1149 18.468C36.1437 20.2346 35.0363 22.6306 35.0363 25.129ZM52.5544 25.129V43.9694C52.5544 44.8022 52.1853 45.6009 51.5283 46.1898C50.8712 46.7787 49.98 47.1095 49.0508 47.1095H45.5472C44.618 47.1095 43.7268 46.7787 43.0697 46.1898C42.4127 45.6009 42.0436 44.8022 42.0436 43.9694V25.129C42.0436 24.2962 42.4127 23.4976 43.0697 22.9087C43.7268 22.3198 44.618 21.989 45.5472 21.989H49.0508C49.98 21.989 50.8712 22.3198 51.5283 22.9087C52.1853 23.4976 52.5544 24.2962 52.5544 25.129ZM72.1748 25.129C71.7238 25.2114 71.2954 25.3727 70.914 25.6035C70.5326 25.8343 70.2057 26.1302 69.9519 26.4743C69.6981 26.8184 69.5224 27.2039 69.4349 27.6088C69.3474 28.0138 69.3498 28.4302 69.4419 28.8343C70.8099 34.7885 69.9991 40.9794 67.13 46.4879C64.2608 51.9964 59.4862 56.5288 53.5149 59.4125C47.5436 62.2962 40.694 63.3773 33.9828 62.4954C27.2716 61.6135 21.0565 58.8156 16.2602 54.517C11.464 50.2184 8.3421 44.6483 7.3581 38.6335C6.3741 32.6187 7.58041 26.4798 10.798 21.1282C14.0155 15.7765 19.0728 11.4974 25.219 8.92593C31.3653 6.35449 38.2729 5.62784 44.9165 6.85385C45.8458 7.02041 46.8107 6.84932 47.5992 6.37822C48.3877 5.90712 48.935 5.17459 49.1209 4.3418C49.3067 3.509 49.1158 2.64414 48.5902 1.93749C48.0645 1.23084 47.2472 0.740275 46.318 0.573716C43.754 0.145571 41.1474 -0.0438395 38.5399 0.00850359C30.9175 0.00850359 23.4662 2.03428 17.1283 5.82967C10.7904 9.62505 5.85069 15.0196 2.93369 21.3311C0.0166989 27.6426 -0.74652 34.5876 0.740551 41.2878C2.22762 47.9881 5.89819 54.1426 11.2881 58.9732C16.678 63.8038 23.5452 67.0935 31.0212 68.4263C38.4972 69.7591 46.2463 69.075 53.2885 66.4607C60.3308 63.8464 66.3499 59.4193 70.5847 53.7391C74.8195 48.0589 77.0798 41.3808 77.0798 34.5492C77.0873 32.229 76.829 29.9141 76.3091 27.6411C76.2251 27.2313 76.0511 26.8406 75.797 26.4917C75.5429 26.1428 75.2139 25.8427 74.8291 25.6089C74.4443 25.3751 74.0114 25.2122 73.5557 25.1299C73.1 25.0475 72.6306 25.0472 72.1748 25.129ZM21.0218 18.8489V50.2496C21.0218 51.0824 21.3909 51.8811 22.048 52.4699C22.705 53.0588 23.5962 53.3896 24.5254 53.3896C25.4546 53.3896 26.3458 53.0588 27.0029 52.4699C27.6599 51.8811 28.029 51.0824 28.029 50.2496V18.8489C28.029 18.0161 27.6599 17.2174 27.0029 16.6285C26.3458 16.0397 25.4546 15.7088 24.5254 15.7088C23.5962 15.7088 22.705 16.0397 22.048 16.6285C21.3909 17.2174 21.0218 18.0161 21.0218 18.8489Z" fill="#39AC59" fill-opacity="0.84"/>
<path d="M59.5617 12.5688H63.0653V15.7088C63.0653 16.5416 63.4345 17.3403 64.0915 17.9292C64.7486 18.5181 65.6397 18.8489 66.569 18.8489C67.4982 18.8489 68.3893 18.5181 69.0464 17.9292C69.7035 17.3403 70.0726 16.5416 70.0726 15.7088V12.5688H73.5762C74.5054 12.5688 75.3966 12.2379 76.0537 11.6491C76.7107 11.0602 77.0798 10.2615 77.0798 9.42871C77.0798 8.59591 76.7107 7.79722 76.0537 7.20834C75.3966 6.61947 74.5054 6.28864 73.5762 6.28864H70.0726V3.14857C70.0726 2.31577 69.7035 1.51708 69.0464 0.928208C68.3893 0.339331 67.4982 0.00850359 66.569 0.00850359C65.6397 0.00850359 64.7486 0.339331 64.0915 0.928208C63.4345 1.51708 63.0653 2.31577 63.0653 3.14857V6.28864H59.5617C58.6325 6.28864 57.7413 6.61947 57.0843 7.20834C56.4272 7.79722 56.0581 8.59591 56.0581 9.42871C56.0581 10.2615 56.4272 11.0602 57.0843 11.6491C57.7413 12.2379 58.6325 12.5688 59.5617 12.5688ZM35.0363 25.129V43.9694C35.0363 46.4678 36.1437 48.8639 38.1149 50.6305C40.086 52.3972 42.7595 53.3896 45.5472 53.3896H49.0508C51.8385 53.3896 54.512 52.3972 56.4831 50.6305C58.4543 48.8639 59.5617 46.4678 59.5617 43.9694V25.129C59.5617 22.6306 58.4543 20.2346 56.4831 18.468C54.512 16.7013 51.8385 15.7088 49.0508 15.7088H45.5472C42.7595 15.7088 40.086 16.7013 38.1149 18.468C36.1437 20.2346 35.0363 22.6306 35.0363 25.129ZM52.5544 25.129V43.9694C52.5544 44.8022 52.1853 45.6009 51.5283 46.1898C50.8712 46.7787 49.98 47.1095 49.0508 47.1095H45.5472C44.618 47.1095 43.7268 46.7787 43.0697 46.1898C42.4127 45.6009 42.0436 44.8022 42.0436 43.9694V25.129C42.0436 24.2962 42.4127 23.4976 43.0697 22.9087C43.7268 22.3198 44.618 21.989 45.5472 21.989H49.0508C49.98 21.989 50.8712 22.3198 51.5283 22.9087C52.1853 23.4976 52.5544 24.2962 52.5544 25.129ZM72.1748 25.129C71.7238 25.2114 71.2954 25.3727 70.914 25.6035C70.5326 25.8343 70.2057 26.1302 69.9519 26.4743C69.6981 26.8184 69.5224 27.2039 69.4349 27.6088C69.3474 28.0138 69.3498 28.4302 69.4419 28.8343C70.8099 34.7885 69.9991 40.9794 67.13 46.4879C64.2608 51.9964 59.4862 56.5288 53.5149 59.4125C47.5436 62.2962 40.694 63.3773 33.9828 62.4954C27.2716 61.6135 21.0565 58.8156 16.2602 54.517C11.464 50.2184 8.3421 44.6483 7.3581 38.6335C6.3741 32.6187 7.58041 26.4798 10.798 21.1282C14.0155 15.7765 19.0728 11.4974 25.219 8.92593C31.3653 6.35449 38.2729 5.62784 44.9165 6.85385C45.8458 7.02041 46.8107 6.84932 47.5992 6.37822C48.3877 5.90712 48.935 5.17459 49.1209 4.3418C49.3067 3.509 49.1158 2.64414 48.5902 1.93749C48.0645 1.23084 47.2472 0.740275 46.318 0.573716C43.754 0.145571 41.1474 -0.0438395 38.5399 0.00850359C30.9175 0.00850359 23.4662 2.03428 17.1283 5.82967C10.7904 9.62505 5.85069 15.0196 2.93369 21.3311C0.0166989 27.6426 -0.74652 34.5876 0.740551 41.2878C2.22762 47.9881 5.89819 54.1426 11.2881 58.9732C16.678 63.8038 23.5452 67.0935 31.0212 68.4263C38.4972 69.7591 46.2463 69.075 53.2885 66.4607C60.3308 63.8464 66.3499 59.4193 70.5847 53.7391C74.8195 48.0589 77.0798 41.3808 77.0798 34.5492C77.0873 32.229 76.829 29.9141 76.3091 27.6411C76.2251 27.2313 76.0511 26.8406 75.797 26.4917C75.5429 26.1428 75.2139 25.8427 74.8291 25.6089C74.4443 25.3751 74.0114 25.2122 73.5557 25.1299C73.1 25.0475 72.6306 25.0472 72.1748 25.129ZM21.0218 18.8489V50.2496C21.0218 51.0824 21.3909 51.8811 22.048 52.4699C22.705 53.0588 23.5962 53.3896 24.5254 53.3896C25.4546 53.3896 26.3458 53.0588 27.0029 52.4699C27.6599 51.8811 28.029 51.0824 28.029 50.2496V18.8489C28.029 18.0161 27.6599 17.2174 27.0029 16.6285C26.3458 16.0397 25.4546 15.7088 24.5254 15.7088C23.5962 15.7088 22.705 16.0397 22.048 16.6285C21.3909 17.2174 21.0218 18.0161 21.0218 18.8489Z" stroke="#19F03C"/>
</svg>
